<svg xmlns="http://www.w3.org/2000/svg" enable-background="new 0 0 381.857 360.964" viewBox="0 0 381.857 360.964"><path d="M211.2048 33.6844C185.1194 88.0423 108.989 235.2038 18.4104 305.3823l-15.7161 1.3429.3682 4.6325 56.2405-4.8056c-1.5088 4.256-4.6372 11.5746-10.063 18.1411l5.3591-.3485c5.1697-7.1748 7.9163-14.5339 9.0647-18.1653l16.04-1.3705c-1.115 3.4893-4.0195 11.2971-9.5735 18.5259l5.2302-.3401c5.5701-8.218 8.0371-16.3587 8.6355-18.5526l101.9075-8.7078c-.6194 2.3403-1.25 4.6583-1.8931 6.9494l-56.074 3.8793-2.2888 13.1617 98.207-6.3859-.6284-8.3529 11.2805-1.0475.791 8.6563 12.1931-.7928-1.4819-8.9315 9.7666-.9069 2.6018 9.1306 20.2754-1.3184-11.2534-12.861-63.7012 4.407c36.1492-12.6008 70.7112-16.6956 99.4114-17.0079-.4961 5.6176-1.9849 15.024-6.4026 24.2879l4.5393-.2952c4.0903-9.3677 5.4534-18.4995 5.8975-24.014 29.8452.0369 52.8608 4.0754 63.9336 6.4823-.3054 3.2697-1.0225 8.0326-2.7063 13.1669l4.2993-.2796c1.386-4.6212 2.0476-8.8508 2.3589-11.9835 2.1558.52 3.3054.847 3.3054.847 4.9397-31.3372 1.6438-61.1232-6.7917-88.7356-37.8464 16.7195-77.5313 24.7347-106.2834 28.5627l-.6602-4.9561c28.5398-3.7998 67.9673-11.7648 105.4272-28.4013-.7871-2.3862-1.6157-4.7539-2.4761-7.1061-12.187 5.183-25.1912 9.775-38.9063 13.73l-1.3848-4.8047c13.5918-3.9195 26.4683-8.4702 38.522-13.6063-10.0837-25.8837-24.4104-49.6013-40.1755-70.5832-10.5403 6.1274-22.2571 11.5934-35.0339 16.3194l-1.7344-4.6895c12.2908-4.5461 23.5667-9.7833 33.7173-15.639-39.0845-50.5868-85.7124-84.4902-98.457-93.2873.3127-11.9269.3647-18.937.3667-19.2955L218.2686 0c-.001.1611-.012 1.6758-.0525 4.3781-9.4241 4.8585-37.1882 16.929-84.3704 19.3906C167.8809 35.607 197.2715 34.9874 211.2048 33.6844zM161.8684 293.1242L21.231 305.1413C41.1987 296.9087 109.1836 272.2131 161.8684 293.1242zM165.6428 292.8017c28.5833-85.1472 44.5623-192.0988 51.3149-245.7969-2.4751 59.6812-9.5732 164.4285-29.8145 243.9597L165.6428 292.8017zM199.1919 301.6335l-8.6245.5967c25.3215-91.8537 31.7556-222.7514 33.3677-277.0804C232.1274 49.6406 249.8179 131.9845 199.1919 301.6335zM.2263 331.6342l-.0933 2.6379L0 338.0339l9.8665-.6174 6.2307 19.8981c0 0 253.239 3.6496 289.0862 3.6496 30.8262 0 61.4565-36.2256 69.4326-46.3739l6.0422-.3781 1.1987-7.3935-.7803.0507L.2263 331.6342zM335.2859 332.7523c-3.595 0-6.5093-2.9142-6.5093-6.5092s2.9143-6.5092 6.5093-6.5092 6.5093 2.9143 6.5093 6.5092S338.8809 332.7523 335.2859 332.7523z"/></svg>